<svg width="512" height="512" viewBox="0 0 512 512" fill="none"
	xmlns="http://www.w3.org/2000/svg">
	<rect width="512" height="512" rx="50" fill="#2C2F33"/>
	<g clip-path="url(#clip0_132_2)">
		<path d="M228.727 334.156C225.566 334.156 222.53 332.902 220.288 330.66L156.497 266.877C151.835 262.218 151.835 254.66 156.497 249.997C161.157 245.335 168.718 245.332 173.378 249.997L228.236 304.846L337.928 181.986C342.318 177.073 349.863 176.639 354.783 181.031C359.701 185.423 360.13 192.968 355.738 197.886L237.63 330.167C235.444 332.616 232.345 334.056 229.064 334.151C228.951 334.153 228.839 334.156 228.727 334.156Z" fill="white"/>
	</g>
	<defs>
		<clipPath id="clip0_132_2">
			<rect width="205.77" height="156.158" fill="white" transform="translate(153 178)"/>
		</clipPath>
	</defs>
</svg>
